<svg id="Warstwa_1" data-name="Warstwa 1" xmlns="http://www.w3.org/2000/svg" viewBox="0 0 860.41 546.78"><defs><style>.cls-1{fill-rule:evenodd;}.cls-2{fill:#bba383;}</style></defs><path class="cls-1" d="M43.11,141.53c-30.88,32.83-30.88,85,0,117.79L201.37,427.55c63,67,146,100.47,228.84,100.47S596,494.54,659.06,427.55L817.31,259.33c30.88-32.82,30.88-85,0-117.79L802,125.29a80.55,80.55,0,0,0-118.08,0L529.32,289.64C502.15,318.52,466.2,333,430.21,333s-71.94-14.44-99.11-43.33L176.48,125.28a80.56,80.56,0,0,0-118.08,0Z"/><ellipse class="cls-2" cx="429.36" cy="134.98" rx="112.86" ry="116.21"/></svg>